<?xml version="1.0" encoding="UTF-8"?>
<svg width="225px" height="56px" viewBox="0 0 225 56" version="1.1" xmlns="http://www.w3.org/2000/svg" xmlns:xlink="http://www.w3.org/1999/xlink">
    <!-- Generator: Sketch 49 (51002) - http://www.bohemiancoding.com/sketch -->
    <title>logo</title>
    <desc>Created with Sketch.</desc>
    <defs></defs>
    <g stroke="none" stroke-width="1" fill="none" fill-rule="evenodd">
        <g transform="translate(-121.000000, -70.000000)">
            <g transform="translate(0.000000, 51.000000)">
                <g transform="translate(122.000000, 20.000000)">
                    <path d="M70.5620837,29.8903478 L70.5620837,30.2741522 C69.9449818,30.2988623 69.531844,30.3865435 69.3234719,30.547558 C69.124717,30.7069783 69.0041016,31.086 69.0041016,31.6706739 L69.0041016,36.7816884 C69.0041016,37.5612536 69.124717,38.1590797 69.3018333,38.5875217 C69.6436436,39.3746594 70.2899979,39.7568696 71.2705488,39.7568696 C72.4759013,39.7568696 73.2841445,39.328029 73.7185202,38.4563986 C73.9433216,37.9773406 74.0631356,37.3213261 74.0631356,36.4556739 L74.0631356,31.7978116 C74.0631356,31.243029 73.976581,30.8683913 73.7589925,30.6547681 C73.558234,30.4447319 73.1487027,30.3120145 72.5247886,30.2741522 L72.5247886,29.8903478 L76.0046025,29.8903478 L76.0046025,30.2741522 C75.4964952,30.3702029 75.1578905,30.4825942 75.0004093,30.626471 C74.8373181,30.759587 74.7703986,31.0820145 74.7703986,31.573029 L74.7703986,36.4556739 C74.7703986,37.7481739 74.4454182,38.7377754 73.8106848,39.4515797 C73.1487027,40.1598043 72.1360945,40.502558 70.7432072,40.502558 C68.9363807,40.502558 67.6993717,39.9892246 67.0421982,38.9382464 C66.6947778,38.3798768 66.5196651,37.6600942 66.5196651,36.7816884 L66.5196651,31.6706739 C66.5196651,31.1023406 66.4431284,30.7372681 66.2848458,30.587413 C66.1237581,30.4411449 65.753497,30.3343333 65.2413825,30.2741522 L65.2413825,29.8903478" fill="#1D1D1B"></path>
                    <path d="M76.5753818,39.8391304 C77.1439971,39.8227899 77.5106519,39.7119928 77.672541,39.5099275 C77.8508594,39.2963043 77.945829,39.0017754 77.945829,38.6103986 L77.945829,31.3782971 C77.4617646,30.8553986 77.1660365,30.5477174 77.0586447,30.4508696 C76.9360258,30.3568116 76.7777431,30.3006159 76.5970204,30.2743116 L76.5970204,29.8905072 L79.909736,29.8905072 L85.335024,36.2816667 L85.4199757,36.2816667 L85.4199757,31.7975725 C85.4199757,31.2730797 85.3105803,30.8968478 85.1234462,30.6788406 C84.9234891,30.4508696 84.5363979,30.3117754 83.9581653,30.2743116 L83.9581653,29.8905072 L87.3414068,29.8905072 L87.3414068,30.2743116 C86.8685624,30.3568116 86.521142,30.4672101 86.3616572,30.5947464 C86.2017717,30.7278623 86.1132136,31.0371377 86.1132136,31.4974638 L86.1132136,40.5027174 L85.6760329,40.5027174 L78.7236179,32.3300362 L78.6342583,32.3300362 L78.6342583,38.323442 C78.6342583,38.7941304 78.6983728,39.1328986 78.844634,39.3206159 C79.0441903,39.6394565 79.4585302,39.8116304 80.1197109,39.8391304 L80.1197109,40.2197464 L76.5753818,40.2197464" fill="#1D1D1B"></path>
                    <path d="M87.918878,39.8391304 C88.3720873,39.8227899 88.6706204,39.7737681 88.8842018,39.6693478 C89.2027707,39.521087 89.3534397,39.2098188 89.3534397,38.7546739 L89.3534397,31.3595652 C89.3534397,30.9060145 89.2027707,30.5999275 88.9058404,30.4448913 C88.7118941,30.3568116 88.3909209,30.2990217 87.918878,30.2743116 L87.918878,29.8905072 L93.3810318,29.8905072 L93.3810318,30.2743116 C92.9033789,30.2990217 92.5844093,30.3568116 92.393268,30.4413043 C92.0823127,30.5947464 91.9380551,30.8968478 91.9380551,31.3595652 L91.9380551,38.7546739 C91.9380551,39.1855072 92.0558655,39.4684783 92.3091177,39.6163406 C92.5359227,39.7566304 92.9033789,39.8391304 93.3810318,39.8391304 L93.3810318,40.2197464 L87.918878,40.2197464" fill="#1D1D1B"></path>
                    <path d="M94.2080286,29.8903478 L103.603606,29.8903478 L103.621639,32.9703478 L103.170433,32.9703478 C103.008544,31.8575942 102.600615,31.1135 101.885739,30.7201304 C101.523091,30.5140797 100.928429,30.3961087 100.15064,30.3702029 L100.15064,38.4340797 C100.15064,39.0000217 100.263642,39.3746594 100.448372,39.5587899 C100.660351,39.7421232 101.062268,39.8321957 101.684179,39.8321957 L101.684179,40.219587 L96.1022111,40.219587 L96.1022111,39.8321957 C96.7409517,39.8321957 97.1376601,39.7377391 97.3344114,39.5587899 C97.5479928,39.3650942 97.6601932,38.9920507 97.6601932,38.4340797 L97.6601932,30.3702029 C96.8791986,30.3961087 96.3105832,30.5140797 95.8930376,30.7201304 C95.1677424,31.1246594 94.732966,31.8763261 94.6375957,32.9703478 L94.1799785,32.9703478" fill="#1D1D1B"></path>
                    <path d="M104.548374,40.2197862 L104.548374,39.8391703 C104.977139,39.8228297 105.298112,39.7566703 105.504481,39.6574312 C105.777769,39.4984094 105.935651,39.1895326 105.935651,38.7547138 L105.935651,31.3596051 C105.935651,30.9060543 105.777769,30.6119239 105.477232,30.4509094 C105.298112,30.3564529 105.003586,30.3006558 104.548374,30.2743514 L104.548374,29.8905471 L113.578499,29.8905471 L113.578499,32.9705471 L113.182992,32.9705471 C112.982234,31.9869239 112.658857,31.3121775 112.177597,30.9451123 C111.700345,30.5740616 110.839608,30.4018877 109.571744,30.4018877 C109.096896,30.4018877 108.771916,30.4449312 108.636474,30.5477572 C108.517862,30.6394239 108.459357,30.8307283 108.459357,31.1248587 L108.459357,34.6811268 C109.343737,34.694279 109.96725,34.5388442 110.281812,34.2184094 C110.595572,33.8943877 110.839608,33.3133007 111.011916,32.4723587 L111.401812,32.4723587 L111.401812,37.5407283 L111.011916,37.5407283 C110.900917,36.6878297 110.664094,36.0696775 110.305454,35.7209457 C109.96725,35.3558732 109.343737,35.1912717 108.459357,35.1912717 L108.459357,38.8782645 C108.459357,39.2098587 108.545111,39.4214891 108.702191,39.5398587 C108.888123,39.6574312 109.229933,39.7136268 109.778112,39.7136268 C110.768681,39.7136268 111.588145,39.5322862 112.226084,39.1516703 C112.864023,38.7750399 113.413805,38.0704022 113.917504,37.0497138 L114.352681,37.0497138 L113.712338,40.2197862" fill="#1D1D1B"></path>
                    <path d="M118.99449,39.5098478 C119.087456,39.6461522 119.320673,39.7139058 119.660479,39.7139058 C120.599757,39.7139058 121.37434,39.393471 121.963792,38.7545942 C122.586905,38.1212971 122.887442,36.886587 122.887442,35.0576377 C122.887442,33.9767681 122.728358,33.056913 122.40458,32.2733623 C121.855199,31.0258986 120.983242,30.4017681 119.730204,30.4017681 C119.339506,30.4017681 119.065417,30.4826739 118.926769,30.6436884 C118.86546,30.7560797 118.814569,30.9693043 118.814569,31.2897391 L118.814569,38.8183623 C118.835807,39.1403913 118.883492,39.3651739 118.99449,39.5098478 M114.944458,39.8390507 C115.361603,39.8115507 115.63449,39.7497754 115.813209,39.6692681 C116.130977,39.5134348 116.276436,39.2268768 116.276436,38.8183623 L116.276436,31.2897391 C116.276436,30.8947754 116.130977,30.6189783 115.840458,30.4671304 C115.660537,30.3702826 115.361603,30.3116957 114.944458,30.2742319 L114.944458,29.8904275 L119.749038,29.8904275 C121.714948,29.8904275 123.179163,30.3961884 124.211005,31.394558 C125.147478,32.3076377 125.607098,33.5419493 125.607098,35.0899203 C125.607098,36.4633261 125.129846,37.6358623 124.211005,38.6047391 C123.159928,39.6820217 121.714948,40.2196667 119.930562,40.2196667 L114.944458,40.2196667" fill="#1D1D1B"></path>
                    <path d="M136.14696,36.6015036 L134.643475,33.0699457 L134.566938,33.0699457 L133.154015,36.6015036 L136.14696,36.6015036 Z M130.297314,39.8393297 C130.677994,39.8114312 130.974523,39.6392572 131.202931,39.3279891 C131.349994,39.1406703 131.572391,38.7022645 131.84087,38.0422645 L135.301049,29.6786775 L135.754659,29.6786775 L139.254108,37.7130616 C139.646809,38.6105978 139.936527,39.1892935 140.144899,39.4551268 C140.330831,39.7137862 140.630566,39.8433152 140.970373,39.8393297 L140.970373,40.2199457 L135.896512,40.2199457 L135.896512,39.8393297 C136.405822,39.8229891 136.720784,39.7739674 136.874659,39.712192 C137.038552,39.6464312 137.128312,39.4834239 137.128312,39.225163 C137.128312,39.0976268 137.086237,38.9158877 136.997679,38.6683877 C136.947589,38.5261051 136.874659,38.3551268 136.790108,38.1510688 L136.405822,37.2124819 L132.896756,37.2124819 C132.674358,37.8194746 132.536512,38.2283877 132.465986,38.4081341 C132.32774,38.8050906 132.258015,39.0824819 132.258015,39.2602355 C132.258015,39.4909964 132.398666,39.6464312 132.689185,39.7420833 C132.883131,39.798279 133.154015,39.8321558 133.504641,39.8393297 L133.504641,40.2199457 L130.297314,40.2199457 L130.297314,39.8393297 Z" fill="#1D1D1B"></path>
                    <path d="M147.734091,34.5278043 C148.176882,34.2595797 148.404087,33.6430217 148.404087,32.6709565 C148.404087,32.0803043 148.309919,31.6159928 148.158449,31.2728406 C147.851501,30.6829855 147.330971,30.4020072 146.550778,30.4020072 C146.140445,30.4020072 145.864352,30.4446522 145.729712,30.5478768 C145.590263,30.643529 145.545783,30.8272609 145.545783,31.0536377 L145.545783,34.949471 C146.566406,34.9323333 147.305325,34.7900507 147.734091,34.5278043 M141.613962,39.8392899 C142.142105,39.8113913 142.501146,39.7121522 142.688281,39.5399783 C142.892645,39.3785652 142.985611,39.0019348 142.985611,38.4399783 L142.985611,31.6705942 C142.985611,31.0819348 142.872209,30.7053043 142.641397,30.5195797 C142.475501,30.4020072 142.164145,30.3119348 141.613962,30.274471 L141.613962,29.8902681 L146.667386,29.8902681 C147.720867,29.8902681 148.564374,29.9915 149.231164,30.2107029 C150.480996,30.643529 151.107314,31.4195072 151.107314,32.5354493 C151.107314,33.3755942 150.781132,34.0272246 150.117146,34.5030942 C149.614649,34.8578043 149.087307,35.0901594 148.51749,35.1913913 L151.832209,39.534 C151.931586,39.6463913 152.013733,39.7308841 152.109905,39.7567899 C152.217697,39.7982391 152.339916,39.8229493 152.499,39.8392899 L152.499,40.2199058 L149.202313,40.2199058 L145.545783,35.4269348 L145.545783,38.4399783 C145.545783,38.9776232 145.613905,39.3430942 145.797032,39.5324058 C145.978556,39.7121522 146.346413,39.8229493 146.894992,39.8392899 L146.894992,40.2199058 L141.613962,40.2199058" fill="#1D1D1B"></path>
                    <path d="M158.853146,36.6015036 L157.347257,33.0699457 L157.266713,33.0699457 L155.861805,36.6015036 L158.853146,36.6015036 Z M152.999093,39.8393297 C153.366148,39.8114312 153.664281,39.6392572 153.925547,39.3279891 C154.05017,39.1406703 154.256538,38.7022645 154.531429,38.0422645 L158.006434,29.6786775 L158.466456,29.6786775 L161.965905,37.7130616 C162.354599,38.6105978 162.654334,39.1892935 162.859501,39.4551268 C163.03862,39.7137862 163.316717,39.8433152 163.686978,39.8393297 L163.686978,40.2199457 L158.596288,40.2199457 L158.596288,39.8393297 C159.077146,39.8229891 159.421361,39.7739674 159.587257,39.712192 C159.746341,39.6464312 159.81286,39.4834239 159.81286,39.225163 C159.81286,39.0976268 159.768781,38.9158877 159.698255,38.6683877 C159.634141,38.5261051 159.587257,38.3551268 159.491887,38.1510688 L159.077146,37.2124819 L155.606549,37.2124819 C155.37734,37.8194746 155.217053,38.2283877 155.14813,38.4081341 C155.015093,38.8050906 154.949375,39.0824819 154.949375,39.2602355 C154.949375,39.4909964 155.104853,39.6464312 155.403386,39.7420833 C155.583307,39.798279 155.839365,39.8321558 156.20081,39.8393297 L156.20081,40.2199457 L152.999093,40.2199457 L152.999093,39.8393297 Z" fill="#1D1D1B"></path>
                    <path d="M168.298132,39.3898043 C168.439986,39.6014348 168.694039,39.7138261 169.055886,39.7138261 C169.810032,39.7138261 170.339377,39.5209275 170.636708,39.1327391 C170.930032,38.7321957 171.093123,38.1754203 171.093123,37.4620145 C171.093123,36.3751667 170.747707,35.6557826 170.080916,35.2974855 C169.675792,35.0822681 169.055886,34.9810362 168.179921,34.9906014 L168.179921,38.7959638 C168.179921,39.0709638 168.224401,39.2602754 168.298132,39.3898043 M170.152243,34.0723406 C170.498061,33.765058 170.656343,33.2162536 170.656343,32.413971 C170.656343,31.8428478 170.534927,31.3578116 170.339377,30.9524855 C170.109367,30.547558 169.694225,30.3566522 169.055886,30.3566522 C168.735714,30.3566522 168.501696,30.402087 168.367055,30.5140797 C168.256057,30.6188986 168.179921,30.8141884 168.179921,31.0911812 L168.179921,34.5390435 C169.173295,34.5390435 169.832072,34.3796232 170.152243,34.0723406 M164.319027,39.838971 C164.733367,39.8226304 165.025088,39.7568696 165.208215,39.6691884 C165.533195,39.5097681 165.668637,39.2040797 165.668637,38.7545145 L165.668637,31.3594058 C165.668637,30.9058551 165.533195,30.6121232 165.2559,30.4507101 C165.074376,30.3566522 164.755005,30.3008551 164.319027,30.2741522 L164.319027,29.8903478 L169.186519,29.8903478 C170.109367,29.8903478 170.88956,29.9911812 171.500651,30.2032101 C172.666733,30.5949855 173.2642,31.3159638 173.2642,32.3673406 C173.2642,32.9890797 173.031785,33.4948406 172.554132,33.8607101 C172.074476,34.2429203 171.575184,34.4692971 170.994948,34.5725217 L170.994948,34.7132101 C171.594819,34.8220145 172.100923,35.0053478 172.531292,35.269587 C173.353159,35.7777391 173.791542,36.4819783 173.791542,37.3906739 C173.791542,38.2300217 173.374397,38.9063623 172.578576,39.4252754 C171.783156,39.9541522 170.707234,40.2199855 169.369646,40.2199855 L164.319027,40.2199855" fill="#1D1D1B"></path>
                    <path d="M182.704338,39.3898043 C182.841382,39.6014348 183.095837,39.7138261 183.462091,39.7138261 C184.210227,39.7138261 184.743179,39.5209275 185.043715,39.1327391 C185.335436,38.7321957 185.492917,38.1754203 185.492917,37.4620145 C185.492917,36.3751667 185.154713,35.6557826 184.494334,35.2974855 C184.076388,35.0822681 183.462091,34.9810362 182.589332,34.9906014 L182.589332,38.7959638 C182.589332,39.0709638 182.645032,39.2602754 182.704338,39.3898043 M184.562456,34.0723406 C184.902663,33.765058 185.062549,33.2162536 185.062549,32.413971 C185.062549,31.8428478 184.947543,31.3578116 184.743179,30.9524855 C184.518377,30.547558 184.107644,30.3566522 183.486134,30.3566522 C183.142721,30.3566522 182.911908,30.402087 182.804517,30.5140797 C182.662663,30.6188986 182.589332,30.8141884 182.589332,31.0911812 L182.589332,34.5390435 C183.573089,34.5390435 184.24549,34.3796232 184.562456,34.0723406 M178.727636,39.838971 C179.134764,39.8226304 179.432896,39.7568696 179.620831,39.6691884 C179.936996,39.5097681 180.094878,39.2040797 180.094878,38.7545145 L180.094878,31.3594058 C180.094878,30.9058551 179.936996,30.6121232 179.67613,30.4507101 C179.482985,30.3566522 179.181647,30.3008551 178.727636,30.2741522 L178.727636,29.8903478 L183.598735,29.8903478 C184.518377,29.8903478 185.294964,29.9911812 185.912467,30.2032101 C187.094177,30.5949855 187.668001,31.3159638 187.668001,32.3673406 C187.668001,32.9890797 187.441597,33.4948406 186.961139,33.8607101 C186.482284,34.2429203 185.978985,34.4692971 185.404359,34.5725217 L185.404359,34.7132101 C185.994613,34.8220145 186.50793,35.0053478 186.936295,35.269587 C187.761769,35.7777391 188.198549,36.4819783 188.198549,37.3906739 C188.198549,38.2300217 187.785411,38.9063623 186.984781,39.4252754 C186.181747,39.9541522 185.111837,40.2199855 183.779057,40.2199855 L178.727636,40.2199855" fill="#1D1D1B"></path>
                    <path d="M195.099913,36.6015036 L193.569179,33.0699457 L193.499455,33.0699457 L192.08533,36.6015036 L195.099913,36.6015036 Z M189.224621,39.8393297 C189.612113,39.8114312 189.910245,39.6392572 190.145065,39.3279891 C190.276499,39.1406703 190.502503,38.7022645 190.787412,38.0422645 L194.253201,29.6786775 L194.685172,29.6786775 L198.186625,37.7130616 C198.598961,38.6105978 198.89509,39.1892935 199.080621,39.4551268 C199.284585,39.7137862 199.557072,39.8433152 199.908499,39.8393297 L199.908499,40.2199457 L194.832235,40.2199457 L194.832235,39.8393297 C195.331526,39.8229891 195.668929,39.7739674 195.829215,39.712192 C195.97187,39.6464312 196.058825,39.4834239 196.058825,39.225163 C196.058825,39.0976268 196.024364,38.9158877 195.926589,38.6683877 C195.875698,38.5261051 195.816793,38.3551268 195.715813,38.1510688 L195.331526,37.2124819 L191.832478,37.2124819 C191.600864,37.8194746 191.466224,38.2283877 191.398904,38.4081341 C191.257852,38.8050906 191.198546,39.0824819 191.198546,39.2602355 C191.198546,39.4909964 191.329179,39.6464312 191.651755,39.7420833 C191.806431,39.798279 192.08533,39.8321558 192.424736,39.8393297 L192.424736,40.2199457 L189.224621,40.2199457 L189.224621,39.8393297 Z" fill="#1D1D1B"></path>
                    <path d="M200.543994,39.8391304 C201.139458,39.8227899 201.503708,39.7119928 201.663193,39.5099275 C201.826685,39.2963043 201.917647,39.0017754 201.917647,38.6103986 L201.917647,31.3782971 C201.430778,30.8553986 201.139458,30.5477174 201.030062,30.4508696 C200.932288,30.3568116 200.770799,30.3006159 200.566034,30.2743116 L200.566034,29.8905072 L203.90159,29.8905072 L209.328481,36.2816667 L209.38418,36.2816667 L209.38418,31.7975725 C209.38418,31.2730797 209.301633,30.8968478 209.094463,30.6788406 C208.914542,30.4508696 208.526248,30.3117754 207.9392,30.2743116 L207.9392,29.8905072 L211.336867,29.8905072 L211.336867,30.2743116 C210.841182,30.3568116 210.519007,30.4672101 210.334277,30.5947464 C210.174391,30.7278623 210.082227,31.0371377 210.082227,31.4974638 L210.082227,40.5027174 L209.666685,40.5027174 L202.711064,32.3300362 L202.60247,32.3300362 L202.60247,38.323442 C202.60247,38.7941304 202.666585,39.1328986 202.807236,39.3206159 C203.015608,39.6394565 203.445175,39.8116304 204.087923,39.8391304 L204.087923,40.2197464 L200.543994,40.2197464" fill="#1D1D1B"></path>
                    <path d="M212.045012,39.8391304 C212.480189,39.8227899 212.775116,39.7566304 212.96225,39.6693478 C213.258779,39.5099275 213.411452,39.2038406 213.411452,38.7546739 L213.411452,31.3595652 C213.411452,30.9207609 213.280017,30.619058 213.005928,30.4672101 C212.821198,30.3607971 212.50303,30.3042029 212.045012,30.2743116 L212.045012,29.8905072 L217.353692,29.8905072 L217.353692,30.2743116 C216.827151,30.3117754 216.463702,30.4130072 216.276969,30.5724275 C216.097448,30.7202899 215.970822,31.0913406 215.970822,31.6704348 L215.970822,34.9493116 L219.384518,31.632971 C219.617735,31.4057971 219.752375,31.2431884 219.821298,31.1435507 C219.886214,31.0423188 219.935502,30.9207609 219.935502,30.7784783 C219.935502,30.5871739 219.84494,30.4508696 219.659409,30.4018478 C219.481091,30.3568116 219.133269,30.3042029 218.594307,30.2743116 L218.594307,29.8905072 L223.164067,29.8905072 L223.164067,30.2743116 C222.339795,30.3376812 221.65377,30.5648551 221.125226,30.9526449 C220.597885,31.3236957 219.576461,32.2602899 218.080189,33.7333333 L222.867538,39.5398188 C222.978536,39.6573913 223.0703,39.7311232 223.185305,39.7566304 C223.283881,39.7928986 223.43976,39.8227899 223.645327,39.8391304 L223.645327,40.2197464 L218.354679,40.2197464 L218.354679,39.8391304 C218.862786,39.8319565 219.185763,39.8116304 219.370493,39.7813406 C219.52557,39.7422826 219.617735,39.6573913 219.617735,39.5135145 C219.617735,39.4517391 219.59289,39.3652536 219.52557,39.2604348 C219.481091,39.1516304 219.370493,39.0169203 219.230643,38.8483333 L216.395581,35.3801449 L215.970822,35.7603623 L215.970822,38.7546739 C215.970822,39.2038406 216.144332,39.5019565 216.439659,39.6649638 C216.628396,39.7498551 216.918514,39.8227899 217.353692,39.8391304 L217.353692,40.2197464 L212.045012,40.2197464" fill="#1D1D1B"></path>
                    <path d="M73.6505989,17.9645942 L73.6505989,19.7162246 L70.5763091,19.7162246 L70.2389066,19.1152101 L69.8121445,19.7162246 L66.1904773,19.7162246 C65.9608673,19.7162246 65.8286311,19.7142319 65.7536973,19.6998841 C65.7140265,19.6883261 65.5982197,19.6492681 65.4419406,19.5847029 C65.1882877,19.4631449 65.0752859,19.2291957 65.0752859,18.8991957 C65.0752859,18.5847391 65.1618404,18.2435797 65.303293,17.8988333 L65.5493324,17.3237246 C65.6426991,17.6142681 65.8061911,17.7940145 66.0305918,17.8876739 C66.1672358,17.9398841 66.4433288,17.9645942 66.783937,17.9645942 L69.5741195,17.9645942 L67.9339907,15.1540145 L68.7582626,13.8200652 L71.2242662,17.9645942" fill="#1D1D1B"></path>
                    <path d="M83.6935327,16.8870725 L83.1161016,17.7471449 L82.9081302,17.7212391 C82.955014,17.8858406 83.1161016,17.9647536 83.3861839,17.9647536 L86.0433288,17.9647536 L86.0433288,19.7159855 L83.1161016,19.7159855 C82.6420551,19.7159855 82.3134683,19.6773261 82.1343485,19.6035942 C81.7829209,19.4768551 81.5845667,19.1803333 81.494005,18.6968913 L81.4515292,18.5358768 L81.3802018,18.2477246 C80.2297474,18.2477246 79.2984844,18.5940652 78.538327,19.2763841 C78.2189567,19.5701159 77.8506991,19.7159855 77.4616043,19.7159855 L72.8265274,19.7159855 L72.8265274,17.9647536 L78.1087599,17.9647536 C78.3584057,17.7375797 78.6569388,17.5693913 79.0175828,17.4470362 C78.538327,17.0911304 78.0362304,16.7483768 77.4616043,16.4482681 C76.7571463,16.070442 76.1620837,15.8867101 75.7481445,15.8867101 L75.3818905,15.9373261 L75.9793574,15.3526522 C76.4357725,14.9086667 76.8445023,14.687471 77.2420122,14.687471 C77.4880515,14.687471 77.9741195,14.8564565 78.7238583,15.1992101 C79.2275578,15.4498986 79.731658,15.6898261 80.2297474,15.9313478 C81.1746347,16.345442 82.0197438,16.6300072 82.7766955,16.7826522 C83.1161016,16.8631594 83.4166383,16.8870725 83.6935327,16.8870725" fill="#1D1D1B"></path>
                    <polygon fill="#1D1D1B" points="85.177703 19.7159058 91.0517925 19.7159058 91.0517925 17.9642754 85.177703 17.9642754"></polygon>
                    <path d="M95.2546175,13.4694203 L94.2824816,14.3163406 L93.5684064,13.6607246 L92.7934225,14.3163406 L91.5996909,13.2051812 L92.5361631,12.3698188 L93.2686712,13.0365942 L94.0733081,12.3698188 L95.2546175,13.4694203 Z M94.0733081,15.5833333 L94.7589324,17.9646739 L97.227741,17.9646739 L97.227741,19.7159058 L93.8857732,19.7159058 L93.6786032,19.1356159 L93.1805138,19.7159058 L90.2039986,19.7159058 L90.2039986,17.9646739 L93.3375943,17.9646739 L92.9468966,16.6717754 L94.0733081,15.5833333 Z" fill="#1D1D1B"></path>
                    <polygon fill="#1D1D1B" points="96.3544615 19.7159058 102.234962 19.7159058 102.234962 17.9642754 96.3544615 17.9642754"></polygon>
                    <path d="M106.667758,10.9492645 L106.03022,12.3940109 L105.685204,12.2461486 L106.101547,17.0183949 C106.101547,17.1849891 106.146026,17.4249167 106.211744,17.7154601 C106.305912,17.8987935 106.560366,18.138721 107.032409,18.4069457 L108.319107,19.1526341 L107.379028,20.625279 L105.255636,19.3638659 L104.977139,19.7161848 L101.407164,19.7161848 L101.407164,17.9645543 L104.814048,17.9645543 L104.29432,11.7120906 C103.95291,11.5957138 103.79022,11.4594094 103.79022,11.3015833 C103.79022,11.2270543 103.835501,11.1122717 103.926864,10.9492645 L104.059501,10.709337 L104.723486,9.56151087 C104.770771,9.85882971 104.839694,10.0672717 104.948688,10.1641196 C105.027629,10.2318732 105.219973,10.3438659 105.546155,10.4845543" fill="#1D1D1B"></path>
                    <path d="M109.644193,20.344221 C109.644193,20.1026993 109.667835,19.695779 109.733553,19.1150906 C109.778032,18.6013587 109.778032,18.183279 109.778032,17.8987138 C109.667835,15.6357428 109.61975,14.4305254 109.61975,14.2846558 C109.61975,13.7131341 109.55283,12.7785326 109.360487,11.4684964 L110.920472,9.60806159 L111.285123,11.8526993 L110.946118,12.2309239 L110.97497,12.4672645 C111.082361,13.8199457 111.124036,14.9402717 111.124036,15.8282428 C111.124036,16.7038587 111.039084,17.4977717 110.854755,18.183279 C110.719714,18.6934239 110.305374,19.4032428 109.644193,20.344221" fill="#1D1D1B"></path>
                    <path d="M117.690201,26.2214493 L118.657128,25.3836957 L119.36399,26.0285507 L120.156605,25.3673551 L121.334709,26.4836957 L120.368183,27.3047101 L119.660519,26.6490942 L118.8655,27.3047101 L117.690201,26.2214493 Z M127.137872,17.9646739 L127.137872,19.7159058 L124.412605,19.7159058 L123.753829,21.0952899 L123.063396,22.4220652 C121.579546,23.4602899 120.211503,23.9823913 118.947647,23.9823913 C118.123375,23.9823913 117.481428,23.7053986 117.00658,23.1749275 C116.526924,22.6356884 116.276477,21.9625362 116.276477,21.1570652 C116.276477,20.2934058 116.656756,19.0678623 117.395274,17.4752536 C117.166867,18.3596377 117.047053,19.1109058 117.047053,19.725471 C117.047053,21.3858333 117.783167,22.2231884 119.253392,22.2231884 C119.844448,22.2231884 120.434702,22.0733333 121.077049,21.7473188 C121.471754,21.5691667 121.834001,21.3388043 122.170602,21.0598188 C122.373364,20.8928261 122.586945,20.660471 122.81375,20.3946377 C122.21428,19.9466667 121.347933,19.7159058 120.234344,19.7159058 L120.099704,19.7159058 L120.888312,17.9646739 L127.137872,17.9646739 Z" fill="#1D1D1B"></path>
                    <polygon fill="#1D1D1B" points="126.287914 19.7159058 132.174025 19.7159058 132.174025 17.9642754 126.287914 17.9642754"></polygon>
                    <path d="M133.262128,22.0057391 L134.227051,21.1819348 L135.439616,22.2584203 L134.481506,23.1188913 L133.262128,22.0057391 Z M131.350314,17.9644348 L134.643395,17.9644348 C134.643395,17.2745435 134.382128,16.6061739 133.92972,15.9672971 L134.928303,14.6070435 C135.50894,15.3072971 135.804268,16.0326594 135.804268,16.7827319 C135.804268,17.2841087 135.690064,17.8747609 135.416776,18.5526957 L134.928303,19.7160652 L131.350314,19.7160652 L131.350314,17.9644348 Z" fill="#1D1D1B"></path>
                    <path d="M140.07822,17.9645942 L142.621962,17.9645942 L142.621962,19.7162246 L140.05618,19.7162246 C139.869447,20.4658986 139.553683,21.2374928 139.078034,21.9943406 C138.432481,22.9297391 137.814978,23.4036159 137.174635,23.4036159 C136.692574,23.4036159 136.129569,22.9879275 135.48642,22.166913 L135.143007,21.7432536 L135.007565,21.5658986 C135.439536,21.7476377 135.896352,21.8428913 136.329526,21.8428913 C136.967064,21.8428913 137.586971,21.5658986 138.159193,21.0019493 C138.616409,20.5424203 139.005905,19.9673116 139.297225,19.2853913 C139.16579,18.886442 139.005905,18.520971 138.797933,18.1762246 C138.595973,17.8446304 138.369569,17.4751739 138.069032,17.102529 L139.078034,15.9375652 C139.571715,16.5820217 139.895093,17.2563696 140.07822,17.9645942" fill="#1D1D1B"></path>
                    <polygon fill="#1D1D1B" points="141.732694 19.7159058 147.603177 19.7159058 147.603177 17.9642754 141.732694 17.9642754"></polygon>
                    <path d="M152.90817,16.49725 C153.183462,16.1696413 153.318102,15.927721 153.318102,15.7539529 C153.318102,15.5044601 153.110131,15.373337 152.749487,15.373337 L152.081494,15.4498587 C152.523884,15.6861993 152.788356,16.0325399 152.90817,16.49725 M157.234696,17.9647138 L157.234696,19.7159457 L152.317115,19.7159457 L152.013773,19.1149312 L151.494045,19.7159457 L146.780829,19.7159457 L146.780829,17.9647138 L151.494045,17.9647138 C151.16666,16.5538442 150.460199,15.8492065 149.316557,15.8492065 L150.181301,14.0206558 C151.16666,13.7524312 152.013773,13.6288804 152.721838,13.6288804 C154.05021,13.6288804 154.716199,14.1382283 154.716199,15.1537355 C154.716199,15.6750399 154.506224,16.2090978 154.121136,16.7407645 C154.092285,16.8304384 153.84344,17.160837 153.391033,17.7375399 L153.227541,17.9647138" fill="#1D1D1B"></path>
                    <polygon fill="#1D1D1B" points="156.389267 19.7159058 162.264558 19.7159058 162.264558 17.9642754 156.389267 17.9642754"></polygon>
                    <path d="M166.698396,10.9699094 L166.07929,12.3644384 L165.735877,12.2309239 L166.058052,16.8776268 C166.058052,17.25625 165.94465,17.8126268 165.668557,18.5678804 L165.668557,18.6256703 L165.366417,19.4442935 L165.25582,19.7161051 L161.461043,19.7161051 L161.461043,17.9644746 L164.852299,17.9644746 L164.319347,11.7120109 C163.992764,11.61875 163.837687,11.4684964 163.837687,11.2528804 C163.837687,11.1667935 163.888578,11.0563949 163.977938,10.9268659 L164.11338,10.7132428 L164.805816,9.58375 C164.805816,9.82367754 164.886761,10.0329167 165.025008,10.1827717 C165.097938,10.267663 165.25582,10.3613225 165.533115,10.4641486" fill="#1D1D1B"></path>
                    <path d="M168.201881,20.344221 C168.201881,20.1026993 168.255977,19.695779 168.298052,19.1150906 C168.342131,18.6013587 168.366975,18.183279 168.342131,17.8987138 C168.255977,15.6357428 168.179841,14.4305254 168.179841,14.2846558 C168.179841,13.7131341 168.11733,12.7785326 167.959848,11.4684964 L169.485372,9.60806159 L169.860442,11.8526993 L169.514224,12.2309239 L169.54027,12.4672645 C169.645258,13.8199457 169.71378,14.9402717 169.71378,15.8282428 C169.71378,16.7038587 169.605988,17.4977717 169.416449,18.183279 C169.286618,18.6934239 168.871877,19.4032428 168.201881,20.344221" fill="#1D1D1B"></path>
                    <path d="M181.358975,13.5988297 L180.991118,14.4700616 C180.095118,14.5804601 179.340571,14.9670543 178.747913,15.6091196 C178.845287,15.1348442 179.031219,14.7530326 179.320936,14.4473442 C178.845287,14.3293732 178.614875,14.0619457 178.614875,13.6083949 C178.614875,13.2839746 178.818439,12.8846268 179.236385,12.4091558 C179.556557,12.0325254 179.958074,11.8468007 180.485415,11.8468007 C180.833637,11.8468007 180.991118,11.9480326 180.991118,12.1672355 C180.991118,12.336221 180.923798,12.5418732 180.739068,12.7873804 C180.583991,12.7535036 180.436929,12.7427428 180.331541,12.7427428 C179.82744,12.7427428 179.432736,12.9169094 179.134603,13.274808 C179.507269,13.6083949 179.979312,13.7769819 180.549129,13.7769819 C180.766317,13.7769819 181.03119,13.7263659 181.358975,13.5988297 M185.473523,9.60774275 L185.473523,17.5823442 C185.473523,17.7529239 185.492757,17.8501703 185.565687,17.8987935 C185.633809,17.9398442 185.743204,17.9645543 185.929537,17.9645543 L188.060943,17.9645543 L188.060943,19.7161848 L184.785494,19.7161848 L184.375161,19.6619819 C184.175605,19.5850616 184.057394,19.4236486 183.959619,19.1749529 L183.621015,19.7161848 L176.631734,19.6771268 C176.214589,19.6679601 175.87358,19.4631051 175.549401,19.0884674 C175.27451,18.7293732 175.137065,18.307308 175.137065,17.7995543 C175.137065,17.1642645 175.303762,16.4970906 175.625136,15.7366558 C175.665208,15.616692 175.734131,15.4704239 175.795841,15.337308 C175.87358,15.2344819 175.937694,15.086221 176.078346,14.9088659 L176.025852,15.1204964 C175.959333,15.5250254 175.914854,15.8885036 175.914854,16.2089384 C175.914854,17.2563297 176.324786,17.8258587 177.142245,17.9139384 C177.358231,17.9510036 177.716471,17.9645543 178.244213,17.9645543 L183.988471,17.9645543 L183.988471,11.1517283" fill="#1D1D1B"></path>
                    <polygon fill="#1D1D1B" points="187.219521 19.7159058 193.116852 19.7159058 193.116852 17.9642754 187.219521 17.9642754"></polygon>
                    <path d="M196.725455,13.4341884 L195.762135,14.2548043 L194.550371,13.1735362 L195.509284,12.3226304 L196.725455,13.4341884 Z M196.133599,15.5831739 L196.82323,17.9645145 L199.269198,17.9645145 L199.269198,19.7161449 L195.926429,19.7161449 L195.738493,19.1354565 L195.234393,19.7161449 L192.265091,19.7161449 L192.265091,17.9645145 L195.379452,17.9645145 L195.012396,16.6720145 L196.133599,15.5831739 Z" fill="#1D1D1B"></path>
                    <polygon fill="#1D1D1B" points="198.394676 19.7159058 204.29361 19.7159058 204.29361 17.9642754 198.394676 17.9642754"></polygon>
                    <path d="M205.871468,22.0510942 L206.804333,21.2376522 L208.04575,22.3169275 L207.086838,23.1602609 L205.871468,22.0510942 Z M207.292806,15.6089203 L207.998867,17.9647536 L210.446838,17.9647536 L210.446838,19.7159855 L207.108076,19.7159855 L206.924949,19.1356957 L206.400412,19.7159855 L203.431911,19.7159855 L203.431911,17.9647536 L206.535854,17.9647536 L206.172004,16.6806232 L207.292806,15.6089203 Z" fill="#1D1D1B"></path>
                    <polygon fill="#1D1D1B" points="209.578247 19.7159058 215.472372 19.7159058 215.472372 17.9642754 209.578247 17.9642754"></polygon>
                    <path d="M219.886374,10.9699094 L219.272077,12.3644384 L218.93227,12.2309239 L219.252442,16.8776268 C219.252442,17.25625 219.13343,17.8126268 218.862546,18.5678804 L218.840106,18.6256703 L218.565215,19.4442935 L218.457423,19.7161051 L214.627784,19.7161051 L214.627784,17.9644746 L218.040278,17.9644746 L217.510932,11.7120109 C217.193165,11.61875 217.030474,11.4684964 217.030474,11.2528804 C217.030474,11.1667935 217.07295,11.0563949 217.170725,10.9268659 L217.304564,10.7132428 L217.989387,9.58375 C217.989387,9.82367754 218.056707,10.0329167 218.19816,10.1827717 C218.270288,10.267663 218.457423,10.3613225 218.703061,10.4641486" fill="#1D1D1B"></path>
                    <path d="M221.40156,20.344221 C221.40156,20.1026993 221.423599,19.695779 221.494526,19.1150906 C221.539406,18.6013587 221.539406,18.183279 221.539406,17.8987138 C221.423599,15.6357428 221.372708,14.4305254 221.372708,14.2846558 C221.372708,13.7131341 221.30619,12.7785326 221.125467,11.4684964 L222.677438,9.60806159 L223.0481,11.8526993 L222.710297,12.2309239 L222.729131,12.4672645 C222.84093,13.8199457 222.915864,14.9402717 222.915864,15.8282428 C222.915864,16.7038587 222.792444,17.4977717 222.610118,18.183279 C222.470669,18.6934239 222.069152,19.4032428 221.40156,20.344221" fill="#1D1D1B"></path>
                    <path d="M28.0923249,54.5535833 C43.5867936,54.5535833 56.14562,42.3515543 56.14562,27.3106486 C56.14562,12.2522065 43.5867936,0.0557572464 28.0923249,0.0557572464 C12.6182927,0.0557572464 0.0562604651,12.2522065 0.0562604651,27.3106486 C0.0562604651,42.3515543 12.6182927,54.5535833 28.0923249,54.5535833" fill="#FEFEFE"></path>
                    <path d="M28.0923249,54.5535833 C43.5867936,54.5535833 56.14562,42.3515543 56.14562,27.3106486 C56.14562,12.2522065 43.5867936,0.0557572464 28.0923249,0.0557572464 C12.6182927,0.0557572464 0.0562604651,12.2522065 0.0562604651,27.3106486 C0.0562604651,42.3515543 12.6182927,54.5535833 28.0923249,54.5535833 Z" stroke="#231F20" stroke-width="0.5"></path>
                    <path d="M28.0923249,46.0853768 C38.766586,46.0853768 47.4204394,37.6811377 47.4204394,27.3104493 C47.4204394,16.936971 38.766586,8.52316667 28.0923249,8.52316667 C17.4104501,8.52316667 8.77743399,16.936971 8.77743399,27.3104493 C8.77743399,37.6811377 17.4104501,46.0853768 28.0923249,46.0853768" fill="#005093"></path>
                    <path d="M28.0923249,46.0853768 C38.766586,46.0853768 47.4204394,37.6811377 47.4204394,27.3104493 C47.4204394,16.936971 38.766586,8.52316667 28.0923249,8.52316667 C17.4104501,8.52316667 8.77743399,16.936971 8.77743399,27.3104493 C8.77743399,37.6811377 17.4104501,46.0853768 28.0923249,46.0853768 Z" stroke="#231F20" stroke-width="0.5"></path>
                    <path d="M5.94261181,27.863558 C5.94261181,28.0975072 5.91496243,28.2461667 5.85846154,28.3131232 C5.82039356,28.3844638 5.64688372,28.4402609 5.39603578,28.4705507 L3.20692665,28.7391739 C2.82744902,28.7877971 2.52130233,28.904971 2.31172809,29.0715652 C1.89017531,29.3991739 1.7250805,29.9316377 1.83287299,30.6669638 C1.89017531,31.2273261 2.10936673,31.6238841 2.43234347,31.8494638 C2.78617531,32.0634855 3.22696243,32.1515652 3.78796422,32.0734493 L5.90053667,31.8211667 C6.10410018,31.7948623 6.25476923,31.8068188 6.31647943,31.8630145 C6.37658676,31.9196087 6.44350626,32.0419638 6.52565295,32.244029 L6.69355277,32.2320725 L6.50000716,30.8192101 L6.33691592,30.8427246 C6.35494812,31.0926159 6.31647943,31.2576159 6.22631843,31.3572536 C6.14777818,31.4548986 5.99670841,31.5146812 5.7699034,31.5489565 L3.75029696,31.7948623 C3.37322361,31.8387029 3.0871127,31.8299348 2.87192844,31.7621812 C2.47722361,31.6338478 2.24440787,31.3313478 2.18309839,30.8371449 C2.12459392,30.4421812 2.26764937,30.1452609 2.58060823,29.9722899 C2.75371735,29.8706594 2.99935599,29.7953333 3.33154919,29.757471 L5.53949195,29.4741014 C5.79394633,29.443413 5.96384973,29.4717101 6.04118784,29.5470362 C6.12814311,29.6203696 6.19265832,29.780587 6.22631843,30.028087 L6.40143113,30.0057681 L6.10410018,27.8452246" fill="#005093"></path>
                    <path d="M3.06206798,35.3754819 L3.20712701,35.3184891 C3.12297674,35.0681993 3.14381395,34.8820761 3.24599642,34.7497572 C3.29047585,34.6724384 3.4126941,34.598308 3.59982826,34.5289601 L6.06623256,33.6573297 L6.06623256,33.7063514 L3.7500966,37.5543587 L3.8118068,37.7173659 L7.48676923,36.4129094 C7.66428623,36.3447572 7.79091234,36.3379819 7.88347764,36.3866051 C7.9648229,36.42925 8.04376386,36.5444312 8.15315921,36.7138152 L8.31945617,36.6635978 L7.81415385,35.3619312 L7.66428623,35.4145399 C7.73441145,35.6421123 7.73441145,35.8079094 7.66428623,35.918308 C7.60738462,36.0251196 7.46192487,36.1175833 7.26357066,36.1953007 L5.39623614,36.8481268 L5.39623614,36.8198297 L7.22910912,33.8028007 L6.75426118,32.5210616 L6.61000358,32.5752645 C6.62523077,32.6553732 6.61000358,32.724721 6.58756351,32.7809167 C6.56632558,32.8363152 6.4817746,32.995337 6.35474776,33.2591775 L3.40227549,34.3085616 C3.24599642,34.3639601 3.10734884,34.3751196 2.99955635,34.342837 C2.89376744,34.3005906 2.78637567,34.1730543 2.7046297,33.9470761 L2.53552773,34.0020761" fill="#005093"></path>
                    <path d="M5.83069195,41.0592935 L5.96413023,40.9799819 C5.87797639,40.8022283 5.82027335,40.6631341 5.82027335,40.5419746 C5.82027335,40.4287862 5.90041646,40.3231703 6.0663127,40.2418659 L8.84126798,38.6723732 C9.00676351,38.5715399 9.1534254,38.5635688 9.27604436,38.6412862 C9.36259893,38.6859239 9.44514633,38.7899457 9.57217317,38.9641123 L9.71322504,38.8804167 L8.5483449,36.9326993 L8.40128229,37.0211775 C8.48543256,37.1853804 8.5483449,37.3149094 8.5483449,37.4017935 C8.5483449,37.5424819 8.46379392,37.6596558 8.29789767,37.7592935 L5.51973667,39.314837 C5.33220179,39.4092935 5.21318927,39.4192572 5.05931449,39.3395471 C5.00081002,39.2849457 4.91505689,39.1916848 4.81287442,39.0334601 L4.66701395,39.1175543" fill="#005093"></path>
                    <path d="M8.87889517,40.1137319 L9.90552844,39.2851449 L12.4428594,42.2838406 L11.423439,43.1176087 L11.2972136,42.9817029 C11.6354175,42.6385507 11.7576358,42.291413 11.7171635,41.972971 C11.6714819,41.7900362 11.5512673,41.5740217 11.3481045,41.3201449 L8.65449445,43.4818841 C8.46375385,43.6297464 8.35916708,43.7688406 8.35916708,43.8780435 C8.35916708,43.9892391 8.43650519,44.1478623 8.61081646,44.3491304 L8.46375385,44.4563406 L6.98270912,42.6807971 L7.10492737,42.5751812 C7.26882004,42.7756522 7.39424401,42.8740942 7.52407585,42.8924275 C7.62986476,42.9099638 7.79095242,42.8322464 7.97768587,42.687971 L10.6728987,40.5262319 C10.4681331,40.291087 10.2545517,40.1368478 10.0910597,40.0563406 C9.73642648,39.926413 9.3841975,39.9889855 9.00672343,40.2548188" fill="#005093"></path>
                    <path d="M14.0359442,47.4789493 L13.8820694,47.3657609 C13.450098,47.5825725 13.075429,47.6678623 12.7568601,47.6260145 C12.4426991,47.5905435 12.1345488,47.4414855 11.8015542,47.1892029 C11.6124165,47.0401449 11.5282662,46.9409058 11.4861911,46.8512319 C11.4689603,46.7691304 11.5094326,46.6774638 11.5979907,46.5666667 L12.5953717,45.3538768 C12.9103342,45.5866304 13.048581,45.7938768 13.075429,46.011087 C13.095064,46.2091667 12.9836651,46.4769928 12.7945274,46.7922464 L12.9267635,46.8894928 L14.3220551,45.1916667 L14.1922233,45.0900362 C13.9061123,45.3339493 13.6588708,45.4686594 13.4669281,45.4881884 C13.2789925,45.5156884 13.0297474,45.4136594 12.7380265,45.1825 L13.7165739,44.0119565 C13.7790855,43.9258696 13.8692465,43.8780435 13.9293538,43.8780435 C14.0110998,43.8780435 14.1132823,43.9457971 14.2843878,44.0697464 C14.6830998,44.3925725 14.9303413,44.6775362 14.9920515,44.9178623 C15.0349281,45.1601812 14.971615,45.4686594 14.7636436,45.8464855 L14.8802519,45.9377536 L15.7405882,44.9310145 L12.7568601,42.5982971 L12.6578834,42.7353986 C12.7945274,42.8505797 12.8846884,42.9597826 12.9103342,43.0255435 C12.9696401,43.1638406 12.9524093,43.2921739 12.8209746,43.4492029 L10.7985631,45.8755797 C10.6727385,46.0202536 10.5497188,46.0736594 10.3954433,46.0513406 C10.3161016,46.0401812 10.1966884,45.9807971 10.0468208,45.8660145 L9.94223399,45.9955435 L12.9696401,48.356558" fill="#005093"></path>
                    <path d="M16.1191843,50.1288732 C16.7799642,50.4576775 17.4319284,50.523837 18.0378104,50.3022428 C18.5787764,50.1161196 18.9766869,49.7598152 19.249975,49.2349239 C19.5412952,48.6606123 19.6174311,48.1090181 19.4551413,47.5964819 C19.249975,47.0333297 18.7895528,46.5586558 18.053839,46.2095254 L16.2393989,45.3255399 L16.182898,45.4726051 C16.3311628,45.5650688 16.4089016,45.6284384 16.4722147,45.7033659 C16.535127,45.8229312 16.5563649,45.9377138 16.4722147,46.0939457 L15.0128086,48.941192 C14.9302612,49.0922428 14.8064401,49.1731486 14.6830197,49.1731486 C14.57122,49.1731486 14.472644,49.1428587 14.3047442,49.0739094 L14.2378247,49.2233659 L16.1191843,50.1288732 Z M17.4319284,46.5586558 C17.4980465,46.4434746 17.556551,46.3657572 17.594619,46.3430399 C17.6871843,46.301192 17.7857603,46.3187283 17.9508551,46.3976413 C18.417288,46.6212283 18.6208515,47.0126051 18.5787764,47.5905036 C18.5599428,47.9328587 18.4369231,48.3190543 18.2265474,48.7148152 C17.8711127,49.4082935 17.5176816,49.8144167 17.1614454,49.9535109 C16.8264472,50.0818442 16.4722147,50.0587283 16.1191843,49.8869529 C15.9945617,49.8235833 15.9112129,49.7526413 15.9112129,49.6852862 C15.8879714,49.6115543 15.9112129,49.5178949 15.9733238,49.3991268 L17.4319284,46.5586558 Z" fill="#005093"></path>
                    <path d="M22.7119971,52.4077065 L22.7288272,52.2435036 C22.5761546,52.2203877 22.4815857,52.1869094 22.4238826,52.1502428 C22.2936501,52.0904601 22.2503728,52.0147355 22.2503728,51.9262572 C22.2660007,51.8481413 22.3108809,51.7369457 22.4238826,51.5795181 C22.4419148,51.512163 22.5469023,51.3527428 22.6887556,51.1156051 L24.1457574,51.3654964 L24.2495428,51.7688297 C24.273185,51.8636848 24.273185,51.9410036 24.2972279,52.0147355 C24.3156608,52.1151703 24.3156608,52.1869094 24.2972279,52.2435036 C24.2972279,52.3499167 24.2339148,52.4176703 24.1698004,52.4260399 C24.0880544,52.4387935 23.9586233,52.4387935 23.7282118,52.4176703 L23.702566,52.5774891 L25.835575,52.9290109 L25.8568129,52.7660036 C25.7141581,52.7400978 25.6079685,52.674337 25.5486626,52.5543732 C25.483346,52.4260399 25.4007986,52.1693732 25.2966125,51.766837 L24.4162404,48.1798804 L24.2495428,48.144808 L22.1886626,51.3886123 C22.0187592,51.6432862 21.896541,51.8094819 21.8372351,51.8740471 C21.7082047,51.9888297 21.558337,52.0370543 21.3896358,52.0231051 L21.372405,52.1841196 L22.7119971,52.4077065 Z M23.6705088,49.5066558 L23.7282118,49.5178152 L24.0880544,51.0861123 L22.8089703,50.8808587 L23.6705088,49.5066558 Z" fill="#005093"></path>
                    <path d="M29.3852336,52.8990797 L29.3595878,52.732087 C29.1267721,52.732087 28.9644823,52.6986087 28.8799313,52.6204928 C28.8009903,52.5543333 28.7553088,52.3988986 28.7553088,52.1840797 L28.7008114,50.9182826 L28.8602962,50.905529 L30.3429438,52.8488623 L31.6981639,52.7795145 L31.6981639,52.6204928 C31.6376558,52.6204928 31.5731406,52.6204928 31.5326683,52.6085362 C31.4925968,52.5949855 31.4461138,52.5575217 31.4016343,52.5128841 L29.9859063,50.7500942 C30.2203249,50.6907101 30.4210834,50.587087 30.6182354,50.4200942 C30.858264,50.2068696 30.9856916,49.9302754 30.964053,49.5751667 C30.9496272,49.1024855 30.6542998,48.7944058 30.1385789,48.6282101 C29.844053,48.5524855 29.4842104,48.5249855 29.0526397,48.5421232 L26.8975914,48.650529 L26.9216343,48.8131377 C27.1584572,48.8191159 27.3019134,48.8502029 27.3584143,48.8976304 C27.4597953,48.9757464 27.5235091,49.1371594 27.5235091,49.3778841 L27.672976,52.2203478 C27.697019,52.4622681 27.650536,52.6204928 27.5679886,52.6986087 C27.5030726,52.7707464 27.3399814,52.8125942 27.1247971,52.8385 L27.1247971,53.0015072 L29.3852336,52.8990797 Z M28.593019,49.0650217 C28.593019,48.9641884 28.6074447,48.8976304 28.6783714,48.8502029 C28.7184429,48.807558 28.8406612,48.7780652 29.0073589,48.7637174 C29.3455628,48.7513623 29.5683606,48.8605652 29.6985932,49.1024855 C29.7775342,49.2463623 29.8216129,49.440058 29.844053,49.6887536 C29.8592801,50.0972681 29.7775342,50.3595145 29.5912014,50.4790797 C29.4168902,50.6090072 29.1087399,50.677558 28.6783714,50.7082464 L28.593019,49.0650217 Z" fill="#005093"></path>
                    <path d="M34.2623027,52.2272826 L34.2202275,52.0710507 C34.0775728,52.1152899 33.9745889,52.1316304 33.8904386,52.1316304 C33.740571,52.1216667 33.6736515,52.0710507 33.636385,51.9889493 C33.6215585,51.9144203 33.6215585,51.7900725 33.6215585,51.6155072 C33.636385,51.5334058 33.636385,51.358442 33.6736515,51.0858333 L35.0977946,50.6944565 L35.3694798,51.028442 C35.433995,51.0973913 35.4760701,51.1619565 35.5141381,51.2213406 C35.570639,51.3050362 35.6179234,51.3823551 35.6351542,51.428587 C35.6660093,51.5334058 35.6660093,51.6071377 35.5966855,51.6581522 C35.5345746,51.6936232 35.4067463,51.7542029 35.2027821,51.8175725 L35.2476623,51.9726087 L37.3109467,51.4162319 L37.2672687,51.2568116 C37.1186032,51.2962681 36.9923778,51.2886957 36.8950039,51.1958333 C36.7900165,51.1113406 36.5724279,50.906087 36.3275907,50.5868478 L33.9745889,47.6993478 L33.7882562,47.7499638 L33.3462669,51.5421739 C33.3069968,51.8382971 33.2613152,52.03 33.2160343,52.1316304 C33.1567284,52.2790942 33.0773868,52.3803261 32.9094869,52.4261594 L32.9495585,52.5891667 L34.2623027,52.2272826 Z M33.8671971,49.2190217 L33.9253009,49.2062681 L34.9282919,50.4792391 L33.7004995,50.8064493 L33.8671971,49.2190217 Z" fill="#005093"></path>
                    <path d="M38.8918497,48.2466377 C39.2048086,48.0796449 39.4604651,47.9883768 39.6648301,47.9955507 C39.9681717,48.0063116 40.2534812,48.2147536 40.4614526,48.6268551 C40.6037066,48.8875072 40.6658175,49.137 40.6469839,49.3342826 C40.6037066,49.5399348 40.4358068,49.7061304 40.1661252,49.8527971 C40.0354919,49.9197536 39.918483,49.9237391 39.8251163,49.8695362 C39.7674132,49.8432319 39.7233345,49.7710942 39.6648301,49.667471 L38.8918497,48.2466377 Z M40.3985403,49.9743551 C40.8729875,49.7184855 41.2276208,49.4163841 41.4195635,49.0720362 C41.6283363,48.7149348 41.6283363,48.3861304 41.4604365,48.0708768 C41.270898,47.7352971 40.977975,47.5491739 40.5604293,47.5168913 C40.3548623,47.5033406 40.1204436,47.5376159 39.8736029,47.6029783 L39.8487585,47.553558 C40.0354919,47.3989203 40.1849589,47.2227609 40.2907478,46.995587 C40.3985403,46.764029 40.3728945,46.5372536 40.2534812,46.300913 C40.0354919,45.9007681 39.6648301,45.7564928 39.1687442,45.8302246 C38.8918497,45.8756594 38.577288,45.9804783 38.2258605,46.1570362 L36.4098175,47.0880507 L36.4943685,47.2395 C36.6606655,47.1518188 36.7896959,47.1223261 36.8618247,47.1223261 C37.0173023,47.1223261 37.1407227,47.2064203 37.2296816,47.3678333 L38.7107263,50.1289928 C38.8113059,50.3019638 38.8113059,50.4474348 38.7235492,50.5570362 C38.6830769,50.6331594 38.577288,50.708087 38.4149982,50.8033406 L38.5015528,50.940442 L40.3985403,49.9743551 Z M38.0988336,46.7923261 C38.0359213,46.6914928 38.0359213,46.6077971 38.0591628,46.5372536 C38.0852093,46.4770725 38.1633488,46.4093188 38.2855671,46.3487391 C38.5199857,46.233558 38.7107263,46.2259855 38.8730161,46.3367826 C39.0353059,46.4364203 39.1687442,46.595442 39.2913631,46.8266014 C39.4604651,47.1175435 39.5009374,47.3510942 39.4356208,47.5296449 C39.3711055,47.7077971 39.1687442,47.8967101 38.7860608,48.0708768 L38.0988336,46.7923261 Z" fill="#005093"></path>
                    <path d="M44.3798097,44.567058 C44.6306576,44.3219493 44.8578633,44.1824565 45.0441961,44.1406087 C45.3375199,44.0557174 45.6729188,44.1824565 45.9842748,44.5104638 C46.2130834,44.7356449 46.3184716,44.9544493 46.3581424,45.1557174 C46.3829868,45.3541957 46.2808043,45.5718043 46.0483893,45.7710797 C45.9426004,45.8842681 45.8392157,45.918942 45.7302211,45.8858623 C45.6729188,45.8659348 45.5875664,45.8228913 45.5282605,45.7336159 L44.3798097,44.567058 Z M46.2964322,45.8424203 C46.717985,45.4518406 46.9516021,45.0764058 47.0445682,44.6810435 C47.1287184,44.2992319 47.0445682,43.9803913 46.7929188,43.7245217 C46.5264429,43.4491232 46.1698061,43.3482899 45.7819134,43.4295942 C45.5659277,43.4706449 45.3531478,43.553942 45.1475807,43.6838696 L45.1143213,43.6519855 C45.2317309,43.4630725 45.3186862,43.2458623 45.3531478,43.0043406 C45.3976272,42.7524565 45.3186862,42.5324565 45.128747,42.3403551 C44.814586,42.0207174 44.4202819,41.9657174 43.9358168,42.178942 C43.6881746,42.2837609 43.4176916,42.4774565 43.1520172,42.7385072 L41.6461281,44.1103188 L41.7715521,44.2338696 C41.9166111,44.1103188 42.0432372,44.0413696 42.1261853,44.0118768 C42.2476021,43.9891594 42.3754304,44.0413696 42.525298,44.1732899 L44.7292336,46.4338696 C44.8754948,46.566587 44.9219778,46.7016957 44.8578633,46.8443768 C44.835824,46.924087 44.756883,47.0332899 44.6306576,47.1516594 L44.756883,47.2640507 L46.2964322,45.8424203 Z M43.2117238,43.3821667 C43.1255699,43.2920942 43.0887041,43.2179638 43.0887041,43.1502101 C43.1135485,43.0804638 43.1520172,43.0043406 43.2517953,42.9098841 C43.4389295,42.7353188 43.6272658,42.6807174 43.8144,42.7353188 C43.9991299,42.7943043 44.1890691,42.9158623 44.358171,43.0928188 C44.5857775,43.329558 44.7112014,43.5455725 44.6923678,43.7328913 C44.6923678,43.9257899 44.521663,44.1533623 44.229942,44.425971 L43.2117238,43.3821667 Z" fill="#005093"></path>
                    <path d="M49.3881531,42.4472464 L49.2326755,42.3515942 C49.1501281,42.4775362 49.0767971,42.5652174 49.0110798,42.6042754 C48.903688,42.687971 48.8255485,42.7027174 48.7353875,42.6485145 C48.6776844,42.6042754 48.5919313,42.5106159 48.4921531,42.3691304 C48.4268365,42.3101449 48.3178419,42.1646739 48.1543499,41.9402899 L48.9834304,40.739058 L49.4262211,40.8299275 C49.5332122,40.8426812 49.5941209,40.8673913 49.654629,40.8793478 C49.7620208,40.9160145 49.8417631,40.9482971 49.8874447,40.9682246 C49.9896272,41.0331884 50.0341066,41.0985507 50.0092623,41.1698913 C49.9896272,41.2332609 49.9287184,41.3607971 49.8249331,41.5461232 L49.944747,41.6330072 L51.1577131,39.9001087 L51.0322891,39.8068478 C50.9321102,39.9407609 50.8227148,39.9997464 50.6976916,39.9997464 C50.5530333,40.0097101 50.2809474,39.9826087 49.8650047,39.8905435 L46.1295342,39.175942 L46.0245467,39.3166304 L48.2108508,42.4914855 C48.3811549,42.7381884 48.4921531,42.915942 48.5085825,43.017971 C48.572697,43.1638406 48.572697,43.3109058 48.4921531,43.4492029 L48.6095628,43.5356884 L49.3881531,42.4472464 Z M47.0724179,40.4018841 L47.0848401,40.346087 L48.7153517,40.6844565 L48.010493,41.7178986 L47.0724179,40.4018841 Z" fill="#005093"></path>
                    <path d="M52.3244365,37.427221 L52.1753703,37.3714239 C52.0523506,37.6093587 51.9301324,37.7592138 51.7618318,37.7851196 C51.6836923,37.7974746 51.5342254,37.7751558 51.3430841,37.6998297 L48.9223614,36.7676196 L48.9223614,36.7297572 L53.3029839,35.3619312 L53.3658962,35.1905543 L49.7422254,33.8012065 C49.5478784,33.7294674 49.4505045,33.6461703 49.4020179,33.5580906 C49.3879928,33.4739964 49.3879928,33.3321123 49.4505045,33.1388152 L49.2842075,33.0722572 L48.7540608,34.3719312 L48.9035277,34.4289239 C49.0109195,34.2121123 49.1339392,34.0905543 49.2629696,34.0467138 C49.3699606,34.0020761 49.5334526,34.0291775 49.7422254,34.1017138 L51.5754991,34.8027645 L51.5754991,34.837837 L48.1345546,35.8959891 L47.6164293,37.1765326 L47.7807227,37.2243587 C47.8011592,37.1613877 47.8640716,37.1135616 47.9053453,37.0816775 C47.9654526,37.0569674 48.1345546,36.987221 48.4266762,36.8839964 L51.3430841,38.008308 C51.5169946,38.0688877 51.6155707,38.1493949 51.6568444,38.2418587 C51.7229624,38.3399022 51.7001216,38.5068949 51.6155707,38.7328732 L51.7906834,38.7838877" fill="#005093"></path>
                    <path d="M53.8310469,33.3805761 L53.6579377,33.3618442 C53.6835835,33.1856848 53.6835835,33.0609384 53.6371005,32.978837 C53.5950254,32.8449239 53.4740093,32.7664094 53.285673,32.7424964 L50.0923707,32.2853587 C49.9156551,32.2650326 49.7786104,32.3009022 49.7000701,32.3993442 C49.6363564,32.4666993 49.5942812,32.5862645 49.5477982,32.7664094 L49.3883134,32.7496703 L49.7209073,30.5847428 L49.8872043,30.6174239 C49.8651649,30.8426051 49.8872043,30.991663 49.9449073,31.0773514 C49.9897875,31.1698152 50.1536801,31.2272065 50.4097374,31.2574964 L51.8054297,31.4651413 L50.5712258,29.8920616 C50.5107177,29.7748877 50.431376,29.7015543 50.4097374,29.663692 C50.3664601,29.636192 50.324385,29.6110833 50.2678841,29.6110833 C50.1861381,29.600721 50.1124064,29.62025 50.0783456,29.6999601 C50.0342669,29.7637283 50.0094225,29.903221 49.9449073,30.1164457 L49.8006497,30.0977138 L50.0783456,28.2496341 L50.2438411,28.2643804 C50.2185961,28.60275 50.280707,28.8889094 50.4097374,29.12525 C50.5323564,29.3655761 50.8673546,29.8414457 51.4059163,30.5297428 L54.181673,28.9375326 C54.2417803,28.9048514 54.285859,28.8737645 54.307097,28.8275326 C54.3319413,28.7976413 54.3503742,28.7290906 54.3724136,28.6422065 L54.5351041,28.6681123 L54.2077195,30.8123152 L54.0358125,30.7812283 C54.0758841,30.5963007 54.0758841,30.4603949 54.0758841,30.3926413 C54.0758841,30.3173152 54.0358125,30.2806486 53.9917338,30.2635109 C53.9500594,30.2635109 53.9051792,30.2635109 53.8711184,30.2834384 C53.8310469,30.3049601 53.7661309,30.3252862 53.6835835,30.3798877 L52.0081918,31.3312283 L52.154453,31.5145616 L53.4379449,31.7018804 C53.6182669,31.7257935 53.7661309,31.6839457 53.8478769,31.5631848 C53.9051792,31.5057935 53.9500594,31.3874239 53.9829181,31.2120616 L54.1371936,31.2375688" fill="#005093"></path>
                    <path d="M28.8800515,46.0735 C22.4421553,46.4437536 17.4103699,42.9157826 17.4103699,42.9157826 L18.53598,40.1813261 L18.5788565,38.526942 L18.828903,37.2503841 L18.828903,36.3161812 L19.0561088,35.4397681 L19.475658,33.3936087 L19.475658,32.9109638 L19.5157295,32.264913 L19.5157295,29.8194058 L19.8527313,29.1295145 L19.5566025,28.7692246 L19.6002805,28.0861087 L19.5157295,26.7621232 C19.3510354,26.0865797 19.9316723,22.0301304 19.9316723,22.0301304 C20.2686741,20.973971 20.2686741,19.3423043 20.2686741,19.3423043 C20.0590998,18.8150217 20.3123521,17.9334275 20.3123521,17.9334275 L20.5119084,16.4850942 C20.5119084,16.1303841 20.743522,15.0794058 20.743522,15.0794058 L21.9953574,14.5684638 C22.8544916,14.7246957 24.1700408,13.8821594 24.1700408,13.8821594 C24.7987635,14.2002029 25.1722304,13.6804928 25.1722304,13.6804928 C25.7548708,14.0778478 25.8354147,13.4349855 25.8354147,13.4349855 C25.7957438,13.0356377 26.5691249,12.7988986 26.5691249,12.7988986 C27.0624057,12.5888623 27.5236293,13.1500217 27.5236293,13.1500217 L27.8045309,12.9176667 L28.6320086,12.9176667 L29.0888243,13.3114348 L29.5468422,12.9511449 L29.9403449,12.5195145 C30.2372751,12.4724855 30.6540193,13.199442 30.6540193,13.199442 L31.7632,13.2400942 C32.845132,14.3548406 34.4495971,14.4034638 34.4495971,14.4034638 L34.9536973,16.4141522 C36.5998369,18.3407464 35.2850891,18.8963261 35.2850891,18.8963261 C34.9536973,19.6188986 35.344395,22.1899493 35.344395,22.1899493 C35.8508995,23.4752754 36.1814898,29.5790797 36.1814898,29.5790797 C35.9282376,30.8540435 36.098141,33.9902391 36.098141,33.9902391 C37.0774898,37.528971 37.912581,43.4633913 37.912581,43.4633913 C34.2816973,45.8754203 28.8800515,46.0735 28.8800515,46.0735" fill="#231F20"></path>
                    <path d="M22.9403249,32.863337 C22.9403249,32.863337 23.3562676,32.1471413 24.3929188,32.2232645 L25.8855843,32.1471413 C25.8855843,32.1471413 26.6060708,31.9837355 25.8855843,31.5385543 C25.8855843,31.5385543 24.9170547,31.8629746 24.4618419,31.465221 L23.9377059,31.4209819 C23.9377059,31.4209819 23.8936272,32.0211993 23.0994089,31.8629746 C23.0994089,31.8629746 21.9160959,32.6644601 22.9403249,32.863337" fill="#231F20"></path>
                    <path d="M30.7750354,42.8925072 C31.6982841,42.9387391 31.0294898,42.5043188 31.0294898,42.5043188 C30.6540193,42.4584855 30.5253896,42.1787029 30.5253896,42.1787029 C30.4035721,41.8160217 31.277132,41.8562754 31.277132,41.8562754 C31.277132,41.8562754 32.1382698,41.9371812 32.1382698,41.5756957 C32.1382698,41.2138116 31.5732608,41.2138116 31.5732608,41.2138116 L30.7750354,41.657 L30.2372751,41.6968551 L30.0621624,42.1420362 L28.9642018,42.4210217 C29.4170104,42.3405145 30.7750354,42.8925072 30.7750354,42.8925072" fill="#FBCFA3"></path>
                    <path d="M32.9288816,41.0085181 C32.9288816,41.6198949 33.3644594,41.3345326 33.3644594,41.3345326 C34.1178047,40.7331196 33.5732322,40.3325761 33.5732322,40.3325761 L32.845132,40.3325761 L32.4656544,40.00975 L31.9631571,40.3325761 C32.3843091,40.3732283 32.9288816,41.0085181 32.9288816,41.0085181" fill="#FBCFA3"></path>
                    <path d="M25.7547506,42.9816232 L26.3181567,42.8632536 C26.3181567,42.8632536 26.0492766,42.3746304 25.7547506,42.2913333" fill="#FBCFA3"></path>
                    <polyline fill="#FBCFA3" points="25.211781 42.983358 25.0070154 42.504558 24.5245538 42.662158"></polyline>
                    <polyline fill="#FBCFA3" points="22.4817059 42.6616667 22.8090905 42.291413 22.1262712 42.0957246 22.0409188 42.4584058"></polyline>
                    <path d="M26.9866304,42.621413 L27.2342726,41.9761594 L27.9058719,41.6967754 C27.9058719,41.6967754 27.9058719,40.9757971 28.4211921,40.9351449 L29.2554819,41.3344928 C29.2554819,41.3344928 29.6586018,41.7768841 29.6586018,40.8546377 C29.6586018,40.8546377 29.7776143,40.0097101 29.0887843,40.3731884 C29.0887843,40.3731884 27.8593889,40.7713406 27.4033746,40.0882246 C27.4033746,40.0882246 26.9425517,40.5792391 26.2957968,40.3731884 L25.5019792,40.4122464 L25.3793603,40.1368478 C25.3793603,40.1368478 25.5019792,39.5282609 26.1944157,39.5736957 C26.1944157,39.5736957 26.7694426,39.6928623 26.9866304,39.3301812 L27.2342726,39.1277174 L27.4446483,38.3672826 L27.8048916,38.323442 L28.1767556,36.7587319 L28.2953674,36.2318478 L28.9645624,35.5973551 L29.3853138,35.2777174 L29.7114962,35.4765942 L29.7563764,36.0022826 L28.9240902,36.5104348 C28.9240902,36.5104348 28.8407413,38.4091304 28.5930991,39.0874638 C28.3422512,39.7677899 28.8010705,39.8558696 28.8010705,39.8558696 L29.507532,39.4497464 L29.9855857,39.3692391 L30.2372351,39.6928623 L30.7397324,39.7677899 L31.698244,39.5736957 C31.698244,39.5736957 32.5990526,39.3301812 31.8220651,39.0173188 L30.8190741,38.8475362 L29.8441331,38.8475362 L29.9042404,38.4091304 L30.4508165,38.1656159 L31.1997538,37.8423913 L31.8465088,38.2509058 L32.6771921,38.0831159 L33.0975428,38.3672826 L33.3463871,38.892971 L33.9899363,38.5713406 C33.9899363,38.5713406 35.1171492,38.6857246 34.7056143,37.4852899 C34.7056143,37.4852899 34.1522261,37.1580797 33.6216787,37.6471014 C33.6216787,37.6471014 33.0061796,37.8037319 33.307117,37.1206159 C33.307117,37.1206159 33.7883764,36.1983696 34.8274318,36.280471 L35.2025016,36.0353623 L34.7056143,35.7157246 L34.5713746,35.3980797 C34.5713746,35.3980797 35.3443549,35.1904348 34.8274318,34.5148913 C34.8274318,34.5148913 33.8673174,33.9114855 33.2157538,34.2267391 L33.2614354,33.6691667 L34.282058,33.5838768 C34.282058,33.5838768 35.2025016,33.5838768 34.4960401,33.1426812 L30.138659,32.9107246 C30.138659,32.9107246 31.0691206,32.0211594 32.509693,32.1471014 L34.5361116,32.4667391 C34.5361116,32.4667391 35.4341152,32.4667391 34.7448844,31.9840942 L33.307117,31.3069565 L30.6183156,31.3069565 L29.7776143,31.2272464 L29.007439,31.0132246 L27.9411349,31.1395652 L27.3120114,30.9853261 L28.2528916,30.5389493 L28.8800114,30.2141304 L30.1538862,30.1722826 L31.3171635,30.2141304 L32.9721188,30.1722826 L33.5731921,30.5022826 C33.5731921,30.5022826 34.5361116,30.4532609 33.8673174,29.9793841 L32.8450919,29.6202899 L31.4461939,29.6202899 C31.4461939,29.6202899 30.1538862,29.4859783 30.138659,29.1292754 C30.138659,29.1292754 30.3197825,28.7689855 31.0294497,28.9355797 L32.6383227,29.0539493 L33.4950526,29.0164855 L33.4950526,28.7291304 C33.4950526,28.7291304 32.2973138,28.6912681 33.0975428,27.7239855 L31.8220651,27.6446739 L31.3171635,27.492029 L30.5734354,27.5677536 L29.2194175,27.2429348 C29.2194175,27.2429348 27.9848129,27.0528261 27.8593889,27.6096014 C27.8593889,27.6096014 25.2118612,26.6451087 23.9379864,26.9691304 C23.9379864,26.9691304 22.8091707,27.1261594 23.0279614,27.5306884 C23.0279614,27.5306884 21.9163764,28.2524638 22.4421152,28.4601087 L23.4867807,28.3760145 C23.4867807,28.3760145 24.4160401,28.3317754 24.4160401,28.9355797 C24.4160401,28.9355797 24.0253424,29.931558 22.8544515,29.1292754 C22.8544515,29.1292754 22.0822726,29.7749275 21.2039041,29.0164855 C21.2039041,29.0164855 20.2257574,28.8526812 20.189693,29.5365942 L19.9320329,31.9031884 C19.9320329,31.9031884 19.6851921,32.3431884 20.6689488,32.2232246 C20.6689488,32.2232246 21.9953174,32.0211594 21.9636608,32.5057971 C21.9636608,32.5057971 22.0822726,33.0318841 21.0844909,32.9107246 C21.0844909,32.9107246 19.9781152,32.9107246 19.9320329,34.2725725 L19.4756179,38.1656159 C19.4756179,38.1656159 19.0127914,39.4497464 19.7645338,39.2516667 C19.7645338,39.2516667 20.5118683,39.2516667 20.599625,38.5713406 C20.599625,38.5713406 20.8348451,38.1277536 21.2539936,38.2118478 L21.3726054,37.7630797 C21.3726054,37.7630797 21.9953174,38.0528261 22.3784014,36.9217391 C22.3784014,36.9217391 22.9001331,35.8452536 23.442702,36.280471 C23.442702,36.280471 23.6482691,37.0819565 23.3104658,37.2059058 C23.3104658,37.2059058 22.7290275,36.9998551 22.604405,37.6471014 C22.604405,37.6471014 21.6671313,38.7331522 22.481786,39.0173188 C22.481786,39.0173188 23.852634,39.2851449 23.1393603,39.9726449 C23.1393603,39.9726449 22.481786,40.6135145 21.9163764,39.4852174 C21.9163764,39.4852174 21.9163764,40.3731884 20.7434819,40.2093841 C20.7434819,40.2093841 19.1382154,40.4552899 20.189693,41.0594928 L21.3726054,41.4935145 L22.0409989,41.5381522 L22.604405,41.5381522 L23.2683907,41.3779348 L23.9379864,41.4935145 C23.9379864,41.4935145 24.524634,42.0207971 24.672498,41.5381522 L23.8129631,40.8139855 L24.524634,40.3731884 L25.2118612,40.5318116 L25.7143585,41.4177899 L26.5246054,41.7406159" fill="#FBCFA3"></path>
                    <path d="M33.5536372,26.8440254 C33.5536372,26.8440254 33.7880558,25.6009457 34.4496372,25.4769964 C34.4496372,25.4769964 34.6608143,26.4072138 35.0346819,26.483337 C35.0346819,26.483337 35.805258,25.3606196 34.3250147,24.1155471 C34.3250147,24.1155471 33.9082705,23.4396051 34.4961202,23.5081558 C34.4961202,23.5081558 34.2064029,22.7533007 33.3644995,22.7987355 L33.8673975,22.3097138 L34.1523063,21.8346413 L34.2064029,21.0243877 C34.2064029,21.0243877 34.8635764,20.7880471 34.2064029,19.9012717 C34.2064029,19.9012717 33.6213581,18.4593152 26.6493081,18.815221 L23.8130433,18.9319964 C23.8130433,18.9319964 22.8092508,18.7753659 23.0280415,19.5457645 C23.0280415,19.5457645 23.0993689,20.3420688 22.4818662,20.3420688 L22.3784816,19.1767065 C22.3784816,19.1767065 21.1258447,19.30225 20.8741953,19.9443152 L20.5540236,21.3089529 L20.2687141,23.2777935 L20.2258376,24.9190254 L20.1036193,26.6826123 L21.0392902,26.7623225 C21.0392902,26.7623225 22.7291077,26.4494601 23.3562275,26.5670326 C23.3562275,26.5670326 24.6721775,26.0863804 25.1722705,26.2075399 C25.1722705,26.2075399 26.318317,25.3925036 25.1269896,25.3606196 L25.8354547,24.6456196 L26.2958769,24.7165616 L26.769122,25.3606196 C26.769122,25.3606196 26.1247714,26.3259094 26.7326569,26.483337 L27.941215,26.6029022 L29.2194977,26.531163 L30.2817946,26.7276486 L31.6378161,26.6029022" fill="#FBCFA3"></path>
                    <path d="M20.599625,28.5326051 C21.4599614,28.4939457 22.424083,27.4066993 22.424083,27.4066993 L21.9636608,27.4066993 C21.0844909,27.8076413 20.0590597,27.8451051 20.0590597,27.8451051 C20.1035392,28.7290906 20.599625,28.5326051 20.599625,28.5326051" fill="#FBCFA3"></path>
                    <path d="M28.3423714,14.4854457 C29.4170905,14.0012065 28.4609832,13.4352645 28.4609832,13.4352645 C27.9412551,13.1192138 27.6972193,13.96175 27.6972193,13.96175 L27.0260208,13.3699022 L26.3800673,13.4814964 C26.252239,14.2395399 25.6327327,14.354721 25.6327327,14.354721 C25.795824,14.8445399 28.3423714,14.4854457 28.3423714,14.4854457" fill="#FBCFA3"></path>
                    <path d="M30.6967757,14.8445 C32.2567614,14.9317826 34.152146,15.8109855 34.152146,15.8109855 L33.9085109,14.7249348 L32.2210977,14.200442 C31.6981639,14.0011667 30.9856916,13.6113841 30.9856916,13.6113841 L30.2067005,14.0011667 L29.7562962,13.7592464 L29.7562962,14.0438116 L29.4168902,14.200442" fill="#FBCFA3"></path>
                    <path d="M34.7056945,19.4182681 C34.7056945,19.4182681 34.9537374,18.8595 34.4496372,18.4593551 L34.2432687,17.9332681 L34.5361918,17.4956594 L35.1564995,18.1393188 C35.1564995,18.1393188 35.5540093,17.857942 34.7449646,16.9719638 C34.7449646,16.9719638 33.7002991,15.8109855 31.0692007,15.4052609 L29.4667392,15.0445725 L26.4810075,15.1306594 L25.2119413,15.2829058 L24.9170147,14.9700435 L25.2516122,14.3180145 C25.2516122,14.3180145 24.5451506,14.6846812 24.0254225,14.5276522 C24.0254225,14.5276522 23.4864601,14.8445 22.5151256,15.0445725 L21.6672114,15.4052609 L22.5151256,15.4510942 L22.5640129,15.7288841 C22.5640129,15.7288841 21.4600415,15.9688116 21.0392902,16.6909855 L20.8349252,18.5845 C20.8349252,18.5845 20.9118626,19.2185942 21.4600415,18.8152609 C21.4600415,18.8152609 22.1260308,18.2572899 22.6886354,18.2572899 L25.4571792,18.1393188 L25.5020594,17.857942 L24.9614941,17.1266014 C24.9614941,17.1266014 24.709444,16.4458768 25.8354547,16.3681594 C25.8354547,16.3681594 27.3585746,16.2900435 26.9867106,17.005442 L26.6064315,17.7778333 L26.859283,18.1393188 C26.859283,18.1393188 32.8447714,17.857942 34.7056945,19.4182681" fill="#FBCFA3"></path>
                    <path d="M23.310546,18.0153696 C24.1051649,18.1751884 23.9376658,17.4956594 23.9376658,17.4956594 C23.7745746,17.0564565 24.1051649,16.3681594 24.1051649,16.3681594 L23.6078769,16.1306232 C23.1911327,17.1266014 23.310546,18.0153696 23.310546,18.0153696" fill="#231F20"></path>
                    <path d="M24.249703,15.6511268 L24.3362576,15.405221 L23.9824258,15.0796051 C23.648229,14.7248949 23.1910125,15.0445326 23.1910125,15.0445326 L23.0992487,15.3657645" fill="#231F20"></path>
                    <polyline fill="#231F20" points="21.5452737 18.5390652 22.208458 18.1393188 21.5452737 17.6622536 21.1257245 18.0536304"></polyline>
                    <path d="M28.9643621,17.6956522 C29.2556823,17.7375 29.4668594,17.0057609 29.4668594,17.0057609 C29.8439327,16.2465217 29.2556823,16.0886957 29.2556823,16.0886957 C28.3424515,16.9372101 28.9643621,17.6956522 28.9643621,17.6956522" fill="#231F20"></path>
                    <path d="M31.3643678,18.0153696 C31.8464286,17.9719275 31.9237667,16.7782681 31.9237667,16.7782681 C31.5731406,16.0098623 31.1547936,16.4458768 31.1547936,16.4458768" fill="#231F20"></path>
                    <path d="M33.3464272,17.5341196 L32.9717581,17.6146268 L33.1376544,18.0920906 L33.9579191,18.0538297 L34.0777331,17.7776341 L33.7407313,16.7780688 C33.2157939,16.1662935 33.0062197,16.8976341 33.0062197,16.8976341" fill="#231F20"></path>
                    <path d="M32.9719184,22.234587 L33.1710741,22.0679928 L32.0098004,21.4677754 C31.0689202,21.2230652 30.4846769,21.8758913 30.4846769,21.8758913 C30.8585445,22.4733188 32.9719184,22.234587 32.9719184,22.234587" fill="#231F20"></path>
                    <path d="M28.9643621,25.3607391 C28.8802118,26.4495797 29.2196179,26.3256304 29.2196179,26.3256304 C29.7778147,26.6030217 29.6311528,25.0407029 29.6311528,25.0407029 C29.6311528,24.5209928 29.3021653,24.5552681 29.3021653,24.5552681 C28.9238898,24.7916087 28.9643621,25.3607391 28.9643621,25.3607391" fill="#231F20"></path>
                    <path d="M22.9403249,26.1601522 C24.2342354,25.6456232 22.8998526,24.4830507 22.8998526,24.4830507 C22.141298,25.1976522 22.9403249,26.1601522 22.9403249,26.1601522" fill="#231F20"></path>
                    <path d="M31.8222254,26.4495399 C32.5098533,26.8130181 32.5098533,25.8429457 32.5098533,25.8429457 C32.3439571,24.7596848 31.8466691,24.9191051 31.8466691,24.9191051 C31.3642075,25.8784167 31.8222254,26.4495399 31.8222254,26.4495399" fill="#231F20"></path>
                    <path d="M28.2529317,34.2265399 C28.0036866,34.8331341 28.460903,35.0288225 28.460903,35.0288225 C29.0888243,34.7558152 28.755429,34.066721 28.755429,34.066721 L28.755429,33.4266486 C28.1767957,33.3505254 27.8045309,33.7486775 27.8045309,33.7486775" fill="#231F20"></path>
                    <polyline fill="#231F20" points="28.2952072 32.9108043 28.5929388 33.0319638 28.7552286 32.3050072 28.6782912 31.5385942 28.0692036 31.6238841"></polyline>
                    <path d="M30.1540064,37.8425109 L30.5731549,37.285337 L30.1383785,36.6014239 C29.7116165,36.5607717 29.5914018,37.0816775 29.5914018,37.0816775" fill="#231F20"></path>
                    <path d="M23.3561073,39.1615145 L23.9824258,39.5736159 L24.4616816,40.0881449 L25.2118211,39.6066957 L24.6291807,39.409413 L24.9172952,39.2029638 L25.7956637,39.4496667 C26.7325367,39.0172391 26.4808873,38.2878913 26.4808873,38.2878913 C26.1462898,37.9678551 25.6686369,38.5270217 25.6686369,38.5270217 L25.7143184,37.4417681 L25.3793202,37.0396304 L24.9613739,37.2851377 L24.9172952,37.9678551 C25.0863971,39.0483261 24.1054454,38.5716594 24.1054454,38.5716594" fill="#231F20"></path>
                    <path d="M41.8950927,5.22496014 C41.460717,5.26521377 40.7502483,6.27952536 40.7502483,6.27952536 L39.168624,9.66202536 C40.6204165,9.49662681 41.8950927,5.22496014 41.8950927,5.22496014" fill="#005093"></path>
                    <path d="M38.4150383,7.47908333 C37.033371,7.88241667 36.5549166,6.85933696 36.5549166,6.85933696 C38.1822225,6.57198188 37.2854211,5.6481413 37.2854211,5.6481413 C36.3701868,4.5158587 35.1840687,5.77966304 35.1840687,5.77966304 C35.7442691,5.68879348 35.7442691,6.08893841 35.7442691,6.08893841 C35.6661295,6.39303261 35.3443549,6.37430072 35.3443549,6.37430072 C30.6539792,6.42730797 27.5452279,4.37238043 27.5452279,4.37238043 C25.6534497,6.33683696 23.9143442,6.06183696 23.9143442,6.06183696 L23.8129631,6.33683696 C25.562888,7.31488043 26.961786,5.52618478 26.961786,5.52618478 C32.3698433,7.95853986 35.6797538,7.10922826 35.6797538,7.10922826 C36.5725481,8.31125725 37.6400544,8.20444565 37.6400544,8.20444565 C38.5773281,8.27618478 39.5009775,7.06658333 39.5009775,7.06658333 L40.4991599,5.07661957 C39.2657574,5.27469928 38.4150383,7.47908333 38.4150383,7.47908333" fill="#005093"></path>
                    <polyline fill="#005093" points="23.5848358 4.86184058 24.2496229 4.30626087 23.5848358 3.45973913 22.7289073 4.2947029"></polyline>
                    <path d="M21.2736687,2.8124529 C21.8498977,3.29828623 21.0977546,4.24843116 21.0977546,4.24843116 L20.4822555,4.81158333 C20.2686741,5.35759783 21.0977546,5.48393841 21.0977546,5.48393841 C21.7473145,5.67285145 21.2736687,6.35198188 21.2736687,6.35198188 C19.7445381,7.39777899 18.596488,6.6373442 18.596488,6.6373442 C17.2052036,5.77966304 18.7058834,3.87578623 18.7058834,3.87578623 L18.6209317,3.6681413 C17.8900265,4.31180072 17.3278225,5.75694565 17.3278225,5.75694565 C16.8261267,7.54723551 18.4370032,7.92864855 18.4370032,7.92864855 C20.2506419,8.44636594 21.6010533,6.50980797 21.6010533,6.50980797 C23.0993288,4.84067754 22.1259907,4.5441558 22.1259907,4.5441558 C21.5798154,4.4899529 21.4936615,4.22212681 21.4936615,4.22212681 C23.0993288,2.92643841 22.1259907,1.69132971 22.1259907,1.69132971 C21.4383628,2.16600362 21.2736687,2.8124529 21.2736687,2.8124529" fill="#005093"></path>
                    <path d="M52.9094812,24.9470036 C53.391542,24.6150109 55.0368801,24.2750471 55.0368801,24.2750471 C54.3071771,23.4093949 52.0787979,24.3659167 52.0787979,24.3659167 C51.1835993,25.063779 49.8007299,24.9984167 49.8007299,24.9984167 C50.736,25.9860254 52.9094812,24.9470036 52.9094812,24.9470036" fill="#005093"></path>
                    <polyline fill="#005093" points="48.7849159 22.428442 48.7849159 21.4252899 47.692966 20.9605797 47.5979964 22.0263043"></polyline>
                    <polyline fill="#005093" points="50.2187163 17.7777536 50.2187163 16.8642754 49.1335785 16.4258696 49.0317968 17.2317391"></polyline>
                    <path d="M48.8444222,12.9229674 L49.4262612,12.8536196 C49.4262612,12.8536196 49.0495886,11.4335833 47.6366655,11.6117355 C47.6366655,11.6117355 47.2792272,11.6260833 47.4835921,12.534779 L46.5495242,11.60775 L46.4232987,11.7540181 C46.4232987,11.7540181 47.1501968,13.1792355 48.0101324,13.2637283 C48.0101324,13.2637283 48.6528801,13.1995616 48.2377388,12.6101051 C48.2377388,12.6101051 47.8013596,11.839308 48.2730018,12.1509746 C48.2730018,12.1509746 48.6096029,12.2187283 48.8444222,12.9229674" fill="#005093"></path>
                    <path d="M48.0470784,15.3494638 L50.6974111,15.0258406 C50.5323163,14.7751522 49.8651249,14.7249348 49.8651249,14.7249348 L47.6932465,14.9839928 C44.7768386,13.0562029 44.7291535,11.1583043 44.7291535,11.1583043 C44.5688673,10.1977971 46.0715506,10.3484493 46.0715506,10.3484493 L46.0715506,10.2185217 C45.2320515,9.92877536 43.8980694,10.2763116 43.8980694,10.2763116 C42.9607957,10.7553696 43.9990497,12.4727246 43.9990497,12.4727246 C45.194785,14.5033406 46.8377188,15.0796449 46.8377188,15.0796449 C45.5422054,15.0366014 47.1057975,17.6957319 47.1057975,18.0472536 L48.210971,17.8954058 C46.9198655,15.0198623 48.0470784,15.3494638 48.0470784,15.3494638" fill="#005093"></path>
                    <path d="M47.1057574,18.0470942 C47.1285982,18.0965145 47.1502369,18.1056812 47.1502369,18.1056812 C47.675575,19.0681812 48.3812351,18.9107536 48.3812351,18.9107536 C48.9835106,18.9227101 48.8893424,19.3782536 48.8893424,19.3782536 C48.6529202,19.5018043 48.7543013,19.8533261 48.7543013,19.8533261 C49.0496286,20.3694493 49.5332923,20.3299928 49.5332923,20.3299928 C49.9283979,20.4647029 49.8005696,21.0505725 49.8005696,21.0505725 C49.8650848,21.5937971 50.4465231,22.0868043 50.4465231,22.0868043 C51.4955964,22.8556087 52.3122547,22.5650652 52.3122547,22.5650652 L54.3074175,22.2422391 C53.3469023,21.5352101 51.8289918,22.080029 51.8289918,22.080029 C51.3236894,22.0951739 51.1137145,21.5714783 51.1137145,21.5714783 C50.6352601,20.610971 51.448312,20.559558 51.448312,20.559558 C51.3433245,20.2323478 49.9897073,20.2474928 49.9897073,20.2474928 C49.4263013,20.0454275 49.7208272,19.6189783 49.7208272,19.6189783 C49.7617002,19.0801377 49.1337789,18.7756449 49.1337789,18.7756449 C48.4269166,18.5389058 48.2986877,17.9661884 48.2986877,17.9661884 C48.2986877,17.9661884 48.2109309,17.8446304 48.2109309,17.8322754" fill="#005093"></path>
                    <path d="M14.0359442,12.8075471 C14.0359442,12.8075471 14.8389782,12.0104457 13.9690247,10.5294312 C13.9690247,10.5294312 12.9103342,8.91450362 12.8666562,8.33102536 C12.8666562,8.33102536 12.3032501,8.56338043 12.7155864,10.0507717 L13.5538834,11.5676558 C13.5538834,11.5676558 14.0916436,12.3049746 14.0359442,12.8075471" fill="#005093"></path>
                    <polyline fill="#005093" points="7.60750483 14.2815072 7.96494311 13.2006377 9.04366941 12.9834275 9.09015242 11.6582464 7.6299449 11.9204928 7.6299449 12.9288261 6.35486798 13.1791159 6.22623828 14.527413"></polyline>
                    <polyline fill="#005093" points="17.3279828 9.69717754 18.0540794 9.37275725 18.7060436 9.92873551 19.3872601 9.2930471 18.5357395 8.52942391 18.0196179 9.02482246 17.2634676 8.36163406 16.5185374 8.96583696"></polyline>
                    <path d="M9.27588408,16.2035978 L10.900385,13.4268949 L10.4888501,13.1124384 L8.94208801,15.5946123 C8.68723292,16.1430181 8.42436351,16.1868587 8.04368372,16.6224746 C7.56522934,17.1888152 7.10520787,16.6431993 7.10520787,16.6431993 C6.45725081,16.2035978 5.83053166,17.2230906 5.83053166,17.2230906 C5.27754419,17.8751196 4.85919714,20.1325109 4.85919714,20.1325109 C4.95777317,20.4836341 5.12326869,20.4142862 5.12326869,20.4142862 C5.64660322,20.0041775 6.12826333,19.7598659 6.12826333,19.7598659 C6.7738161,19.398779 6.45725081,20.0623659 6.45725081,20.0623659 C5.7463814,21.5939964 4.95777317,21.7071848 4.95777317,21.7071848 C4.10464973,22.1141051 3.51720072,21.3887428 3.51720072,21.3887428 L2.72178032,20.247692 L2.39279284,20.757837 L2.99947621,22.0304094 C3.41261395,22.9247572 2.64844937,24.0749746 2.64844937,24.0749746 C2.12471413,24.8736703 2.50298962,25.040663 2.50298962,25.040663 C2.53544758,24.90675 3.14373381,24.4368587 3.14373381,24.4368587 C3.85219893,24.1746123 3.76804866,23.4245399 3.76804866,23.4245399 L3.75001646,22.8342862 C4.64401288,23.4325109 5.25430268,22.985337 5.25430268,22.985337 C6.58788408,22.5361703 6.90204508,21.037221 6.90204508,21.037221 L7.17172665,18.7124746 C7.2294297,17.9273297 5.8778161,18.7754457 5.8778161,18.7754457 C5.67465331,17.9811341 6.56624544,17.7033442 6.56624544,17.7033442 C6.96295385,18.0799746 7.62974454,17.9544312 7.62974454,17.9544312 C8.68723292,17.7376196 9.27588408,16.2035978 9.27588408,16.2035978 C9.27588408,16.0852283 9.31876064,15.9955543 9.36283936,15.9186341" fill="#005093"></path>
                    <path d="M11.2970934,11.412221 C10.5653868,10.6123297 10.2736658,9.07790942 10.2736658,9.07790942 C9.31876064,9.99975725 10.3341739,11.5325833 10.3341739,11.5325833 C10.9432615,11.9984891 10.7164565,12.4727645 10.7164565,12.4727645 C10.6278984,12.7425833 10.5653868,12.9502283 10.4888501,13.1124384 L10.900385,13.4268949 C11.0766998,13.172221 11.4233188,13.1825833 11.4233188,13.1825833 C12.5745746,13.8130906 12.6947893,12.33925 12.6947893,12.33925 C12.5745746,11.4257717 11.2970934,11.412221 11.2970934,11.412221" fill="#005093"></path>
                </g>
            </g>
        </g>
    </g>
</svg>